<svg preserveAspectRatio="none" width="100%" height="100%" overflow="visible" style="display: block;" viewBox="0 0 21 15" fill="none" xmlns="http://www.w3.org/2000/svg">
<path id="Vector" d="M17.4714 1.25623C16.1362 0.669368 14.7087 0.24284 13.2163 0C13.0329 0.311333 12.8188 0.730074 12.6712 1.0632C11.0846 0.839043 9.51268 0.839043 7.95536 1.0632C7.80776 0.730074 7.58872 0.311333 7.40383 0C5.90975 0.24284 4.48057 0.670924 3.14548 1.25934C0.452585 5.08251 -0.277416 8.81074 0.0875846 12.486C1.87365 13.7391 3.60457 14.5003 5.30628 14.9984C5.72643 14.4552 6.10117 13.8777 6.424 13.269C5.80917 13.0495 5.22031 12.7787 4.66388 12.4642C4.8115 12.3615 4.95588 12.2541 5.09539 12.1436C8.48911 13.6348 12.1764 13.6348 15.5296 12.1436C15.6706 12.2541 15.8151 12.3615 15.9611 12.4642C15.403 12.7802 14.8125 13.0511 14.1977 13.2706C14.5205 13.8777 14.8936 14.4567 15.3154 15C17.0187 14.5019 18.7513 13.7407 20.5373 12.486C20.9656 8.22543 19.8057 4.53145 17.4714 1.25623ZM6.88632 10.2257C5.86757 10.2257 5.03212 9.33218 5.03212 8.24412C5.03212 7.15599 5.84972 6.26093 6.88632 6.26093C7.92294 6.26093 8.75835 7.15443 8.74051 8.24412C8.74218 9.33218 7.92294 10.2257 6.88632 10.2257ZM13.7386 10.2257C12.7199 10.2257 11.8844 9.33218 11.8844 8.24412C11.8844 7.15599 12.702 6.26093 13.7386 6.26093C14.7752 6.26093 15.6107 7.15443 15.5928 8.24412C15.5928 9.33218 14.7752 10.2257 13.7386 10.2257Z" fill="var(--fill-0, white)"/>
</svg>
