<svg preserveAspectRatio="none" width="100%" height="100%" overflow="visible" style="display: block;" viewBox="0 0 12 12" fill="none" xmlns="http://www.w3.org/2000/svg">
<path id="&#226;&#134;&#145;" d="M0.400742 6.85714C0.178108 6.85714 0 6.67904 0 6.4564V6.01113C0 5.52134 0.378479 5.14286 0.846011 5.14286H1.29128C1.51391 5.14286 1.71429 4.96475 1.71429 4.71985V4.29685C1.71429 3.80705 2.09276 3.42857 2.5603 3.42857H3.00557C3.2282 3.42857 3.42857 3.25046 3.42857 3.00557V2.58256C3.42857 2.09276 3.80705 1.71429 4.27458 1.71429H4.71985C4.94249 1.71429 5.14286 1.53618 5.14286 1.31354V0.868275C5.14286 0.400742 5.52134 0 5.98887 0C6.4564 0 6.85714 0.400742 6.85714 0.868275V1.29128C6.85714 1.53618 7.03525 1.71429 7.25789 1.71429H7.70315C8.17069 1.71429 8.57143 2.09276 8.57143 2.58256V3.00557C8.57143 3.25046 8.74954 3.42857 8.97217 3.42857H9.41744C9.88497 3.42857 10.2857 3.80705 10.2857 4.29685V4.71985C10.2857 4.96475 10.4638 5.14286 10.6865 5.14286H11.1317C11.5993 5.14286 12 5.52134 12 6.01113V6.4564C12 6.67904 11.8219 6.85714 11.5993 6.85714H11.1317C10.6642 6.85714 10.2857 6.47866 10.2857 6.01113V5.56586C10.2857 5.34323 10.0853 5.14286 9.86271 5.14286H9.41744C8.94991 5.14286 8.57143 4.76438 8.57143 4.29685V3.85158C8.57143 3.62894 8.37106 3.42857 8.14842 3.42857H7.70315C7.23562 3.42857 6.85714 3.05009 6.85714 2.58256V2.13729C6.85714 1.91466 6.65677 1.71429 6.43414 1.71429H5.5436C5.32097 1.71429 5.14286 1.91466 5.14286 2.13729V2.58256C5.14286 3.05009 4.74212 3.42857 4.27458 3.42857H3.82931C3.60668 3.42857 3.42857 3.62894 3.42857 3.85158V4.29685C3.42857 4.76438 3.02783 5.14286 2.5603 5.14286H2.13729C1.89239 5.14286 1.71429 5.34323 1.71429 5.56586V6.01113C1.71429 6.47866 1.33581 6.85714 0.846011 6.85714H0.400742ZM5.14286 4.29685C5.14286 3.80705 5.52134 3.42857 5.98887 3.42857H6.4564C6.67904 3.42857 6.85714 3.60668 6.85714 3.82931V11.154C6.85714 11.6215 6.4564 12 5.98887 12H5.52134C5.32097 12 5.14286 11.8219 5.14286 11.5993V4.29685Z" fill="var(--fill-0, white)"/>
</svg>
