<svg preserveAspectRatio="none" width="100%" height="100%" overflow="visible" style="display: block;" viewBox="0 0 16 16" fill="none" xmlns="http://www.w3.org/2000/svg">
<g id="message">
<path id="Vector" d="M8 15.2067C7.54 15.2067 7.10667 14.9733 6.8 14.5667L5.8 13.2333C5.78 13.2067 5.7 13.1733 5.66667 13.1667H5.33333C2.55333 13.1667 0.833333 12.4133 0.833333 8.66667V5.33333C0.833333 2.38667 2.38667 0.833333 5.33333 0.833333H10.6667C13.6133 0.833333 15.1667 2.38667 15.1667 5.33333V8.66667C15.1667 11.6133 13.6133 13.1667 10.6667 13.1667H10.3333C10.28 13.1667 10.2333 13.1933 10.2 13.2333L9.2 14.5667C8.89333 14.9733 8.46 15.2067 8 15.2067ZM5.33333 1.83333C2.94667 1.83333 1.83333 2.94667 1.83333 5.33333V8.66667C1.83333 11.68 2.86667 12.1667 5.33333 12.1667H5.66667C6.00667 12.1667 6.39333 12.36 6.6 12.6333L7.6 13.9667C7.83333 14.2733 8.16667 14.2733 8.4 13.9667L9.4 12.6333C9.62 12.34 9.96667 12.1667 10.3333 12.1667H10.6667C13.0533 12.1667 14.1667 11.0533 14.1667 8.66667V5.33333C14.1667 2.94667 13.0533 1.83333 10.6667 1.83333H5.33333Z" fill="var(--fill-0, #868C98)"/>
<path id="Vector_2" d="M8 8C7.62667 8 7.33333 7.7 7.33333 7.33333C7.33333 6.96667 7.63333 6.66667 8 6.66667C8.36667 6.66667 8.66667 6.96667 8.66667 7.33333C8.66667 7.7 8.37333 8 8 8Z" fill="var(--fill-0, #868C98)"/>
<path id="Vector_3" d="M10.6667 8C10.2933 8 10 7.7 10 7.33333C10 6.96667 10.3 6.66667 10.6667 6.66667C11.0333 6.66667 11.3333 6.96667 11.3333 7.33333C11.3333 7.7 11.04 8 10.6667 8Z" fill="var(--fill-0, #868C98)"/>
<path id="Vector_4" d="M5.33333 8C4.96 8 4.66667 7.7 4.66667 7.33333C4.66667 6.96667 4.96667 6.66667 5.33333 6.66667C5.7 6.66667 6 6.96667 6 7.33333C6 7.7 5.70667 8 5.33333 8Z" fill="var(--fill-0, #868C98)"/>
<g id="Vector_5" opacity="0">
</g>
</g>
</svg>
