<svg preserveAspectRatio="none" width="100%" height="100%" overflow="visible" style="display: block;" viewBox="0 0 16 16" fill="none" xmlns="http://www.w3.org/2000/svg">
<g id="repeat-circle">
<path id="Vector" d="M11 8.31331C10.7267 8.31331 10.5 8.08665 10.5 7.81331V6.63334C10.5 6.32001 10.2467 6.06665 9.93333 6.06665H5C4.72667 6.06665 4.5 5.83998 4.5 5.56665C4.5 5.29332 4.72667 5.06665 5 5.06665H9.93333C10.8 5.06665 11.5 5.77334 11.5 6.63334V7.81331C11.5 8.08665 11.2733 8.31331 11 8.31331Z" fill="var(--fill-0, #868C98)"/>
<path id="Vector_2" d="M6.12663 7.18667C5.99996 7.18667 5.8733 7.13998 5.7733 7.03998L4.64663 5.91331C4.45329 5.71998 4.45329 5.39998 4.64663 5.20665L5.7733 4.07998C5.96663 3.88664 6.28663 3.88664 6.47996 4.07998C6.67329 4.27331 6.67329 4.59331 6.47996 4.78664L5.70663 5.56L6.47996 6.33331C6.67329 6.52665 6.67329 6.84665 6.47996 7.03998C6.37996 7.13998 6.2533 7.18667 6.12663 7.18667Z" fill="var(--fill-0, #868C98)"/>
<path id="Vector_3" d="M11 10.94H6.06667C5.2 10.94 4.5 10.2334 4.5 9.37337V8.19336C4.5 7.92003 4.72667 7.69336 5 7.69336C5.27333 7.69336 5.5 7.92003 5.5 8.19336V9.37337C5.5 9.68671 5.75334 9.94002 6.06667 9.94002H11C11.2733 9.94002 11.5 10.1667 11.5 10.44C11.5 10.7134 11.2733 10.94 11 10.94Z" fill="var(--fill-0, #868C98)"/>
<path id="Vector_4" d="M9.87333 12.06C9.74667 12.06 9.62 12.0133 9.52 11.9133C9.32667 11.7199 9.32667 11.3999 9.52 11.2066L10.2933 10.4333L9.52 9.65993C9.32667 9.4666 9.32667 9.1466 9.52 8.95327C9.71333 8.75994 10.0333 8.75994 10.2267 8.95327L11.3533 10.0799C11.5467 10.2733 11.5467 10.5933 11.3533 10.7866L10.2267 11.9133C10.1333 12.0133 10 12.06 9.87333 12.06Z" fill="var(--fill-0, #868C98)"/>
<path id="Vector_5" d="M8 15.1667C4.04667 15.1667 0.833333 11.9533 0.833333 8C0.833333 4.04667 4.04667 0.833333 8 0.833333C11.9533 0.833333 15.1667 4.04667 15.1667 8C15.1667 11.9533 11.9533 15.1667 8 15.1667ZM8 1.83333C4.6 1.83333 1.83333 4.6 1.83333 8C1.83333 11.4 4.6 14.1667 8 14.1667C11.4 14.1667 14.1667 11.4 14.1667 8C14.1667 4.6 11.4 1.83333 8 1.83333Z" fill="var(--fill-0, #868C98)"/>
<g id="Vector_6" opacity="0">
</g>
</g>
</svg>
