<svg preserveAspectRatio="none" width="100%" height="100%" overflow="visible" style="display: block;" viewBox="0 0 64 64" fill="none" xmlns="http://www.w3.org/2000/svg">
<g id="sms">
<g id="Vector" opacity="0">
</g>
<path id="Vector_2" d="M45.3333 9.33333H18.6667C10.6667 9.33333 5.33333 13.3333 5.33333 22.6667V41.3333C5.33333 50.6667 10.6667 54.6667 18.6667 54.6667H45.3333C53.3333 54.6667 58.6667 50.6667 58.6667 41.3333V22.6667C58.6667 13.3333 53.3333 9.33333 45.3333 9.33333ZM46.5867 25.5733L38.24 32.24C36.48 33.6533 34.24 34.3467 32 34.3467C29.76 34.3467 27.4933 33.6533 25.76 32.24L17.4133 25.5733C16.56 24.88 16.4267 23.6 17.0933 22.7467C17.7867 21.8933 19.04 21.7333 19.8933 22.4267L28.24 29.0933C30.2667 30.72 33.7067 30.72 35.7333 29.0933L44.08 22.4267C44.9333 21.7333 46.2133 21.8667 46.88 22.7467C47.5733 23.6 47.44 24.88 46.5867 25.5733Z" fill="var(--fill-0, #868C98)"/>
</g>
</svg>
